# xmcd CD database file
#
# Track frame offsets:
#	150
#	12054
#	22253
#	35233
#	49848
#	65207
#	80454
#	100619
#	112753
#	123252
#	134073
#	144576
#	155152
#
# Disc length: 2235 seconds
#
# Revision: 0
# Processed by: cddbd v1.5.2PL0 Copyright (c) Steve Scherf et al.
# Submitted via: CDex 1.70beta2
#
DISCID=b808b90d
DTITLE=Shirley Bassey - Born to Sing
DYEAR=1900
DGENRE=Jazz
TTITLE0=The Banana Boat Song
TTITLE1=Puh-Leeze! Mister Brown
TTITLE2=The Wayward Wind
TTITLE3=Somebody Loves Me
TTITLE4=My Body's More Important than my Mind
TTITLE5=Sex
TTITLE6=I've got you Under my Skin
TTITLE7=You, You Romeo
TTITLE8=My Heart she is Crying
TTITLE9=If you don't love me
TTITLE10=Take my Love Take my Love
TTITLE11=If I had a Needle and Thread
TTITLE12=Born to Sing the Blues
EXTD=
EXTT0=
EXTT1=
EXTT2=
EXTT3=
EXTT4=
EXTT5=
EXTT6=
EXTT7=
EXTT8=
EXTT9=
EXTT10=
EXTT11=
EXTT12=
PLAYORDER=
